<?xml version="1.0" encoding="UTF-8"?>
<svg version="1.1" xmlns="http://www.w3.org/2000/svg" width="108" height="120">
<path d="M0 0 C10.9725 -0.103125 21.945 -0.20625 33.25 -0.3125 C36.69083008 -0.35802002 40.13166016 -0.40354004 43.67675781 -0.45043945 C47.93896484 -0.47302246 47.93896484 -0.47302246 49.94598389 -0.47721863 C51.32220591 -0.48480386 52.69839863 -0.50219281 54.07440186 -0.52787781 C66.92619624 -0.75539262 77.48689497 1.55928501 87.0234375 10.6796875 C95.45899961 20.5823039 96.72863936 30.44613874 96.17919922 42.95751953 C95.41636673 51.65214705 90.0972921 59.4794135 83.61328125 65.05078125 C81.44123928 66.75227096 79.24834535 68.40117664 77 70 C82.42545986 78.6765543 87.88085808 87.32997587 93.51171875 95.875 C93.89382004 96.45557159 94.27592133 97.03614319 94.66960144 97.63430786 C96.56922724 100.5191893 98.47413012 103.40038997 100.38647461 106.27685547 C101.08651611 107.33791504 101.78655762 108.39897461 102.5078125 109.4921875 C103.13316895 110.43433105 103.75852539 111.37647461 104.40283203 112.34716797 C106 115 106 115 108 120 C72.36 120 36.72 120 0 120 C0 80.4 0 40.8 0 0 Z " fill="#1460FA" transform="translate(0,0)"/>
<path d="M0 0 C2.96250312 2.78541449 5.1681392 5.57762251 7.3125 9.02734375 C7.91320313 9.98447266 8.51390625 10.94160156 9.1328125 11.92773438 C10.05707031 13.41756836 10.05707031 13.41756836 11 14.9375 C12.22640284 16.90667193 13.4554879 18.87417638 14.6875 20.83984375 C15.22761719 21.70988037 15.76773438 22.57991699 16.32421875 23.47631836 C18.00161382 26.09314699 18.00161382 26.09314699 20.20703125 28.69750977 C22 31 22 31 22 33 C22.66 33 23.32 33 24 33 C25.77669119 35.59165851 27.43188571 38.19241116 29.0625 40.875 C32.80132548 46.9260403 36.58722872 52.9377093 40.50390625 58.875 C40.88650101 59.45557159 41.26909576 60.03614319 41.6632843 60.63430786 C43.19461787 62.9560208 44.72719828 65.27684683 46.2673645 67.5927124 C47.35136932 69.22331425 48.42968985 70.85769052 49.5078125 72.4921875 C50.13316895 73.43433105 50.75852539 74.37647461 51.40283203 75.34716797 C53 78 53 78 55 83 C19.36 83 -16.28 83 -53 83 C-48.80085909 75.80147272 -44.64024039 68.74737449 -40.0625 61.8125 C-38.92367198 60.07344499 -37.78569096 58.3338351 -36.6484375 56.59375 C-36.05514648 55.68625 -35.46185547 54.77875 -34.85058594 53.84375 C-31.60166292 48.85120972 -28.39502603 43.83169875 -25.1875 38.8125 C-24.5275 37.78036377 -23.8675 36.74822754 -23.1875 35.68481445 C-19.98984854 30.68269679 -16.79486984 25.67887776 -13.60154724 20.67399597 C-12.11433749 18.34361424 -10.62616791 16.01384636 -9.1378479 13.68417358 C-8.07878835 12.02551026 -7.02119411 10.36591162 -5.96362305 8.70629883 C-5.327229 7.71009521 -4.69083496 6.7138916 -4.03515625 5.6875 C-3.4719165 4.80449219 -2.90867676 3.92148437 -2.32836914 3.01171875 C-1 1 -1 1 0 0 Z " fill="#00BCFE" transform="translate(53,37)"/>
<path d="M0 0 C8.14051588 9.90399744 10.00204918 19.49385056 9.21142578 32.02197266 C8.30282792 40.52250369 3.29726637 48.25721962 -3.05859375 53.79296875 C-6.02195426 56.08209678 -8.42674603 57.80891534 -12 59 C-19.83792725 47.30665988 -27.56789048 35.54849027 -35.22460938 23.73583984 C-38.49643447 18.69402576 -41.77953863 13.65956697 -45.0625 8.625 C-46.00959839 7.17154175 -46.00959839 7.17154175 -46.97583008 5.6887207 C-47.57290771 4.7730835 -48.16998535 3.85744629 -48.78515625 2.9140625 C-49.34219238 2.05844727 -49.89922852 1.20283203 -50.47314453 0.32128906 C-51.76976356 -1.64996992 -53.0948623 -3.59640528 -54.43359375 -5.5390625 C-56 -8 -56 -8 -56 -10 C-51.07532574 -10.24429396 -46.15052186 -10.4586624 -41.22338867 -10.64697266 C-39.5521484 -10.71487132 -37.88120283 -10.79053342 -36.21069336 -10.87451172 C-22.03622716 -11.57878032 -10.62387752 -10.52033096 0 0 Z " fill="#157DFE" transform="translate(87,11)"/>
<path d="M0 0 C2.96250312 2.78541449 5.1681392 5.57762251 7.3125 9.02734375 C7.91320313 9.98447266 8.51390625 10.94160156 9.1328125 11.92773438 C10.05707031 13.41756836 10.05707031 13.41756836 11 14.9375 C12.22640284 16.90667193 13.4554879 18.87417638 14.6875 20.83984375 C15.22761719 21.70988037 15.76773438 22.57991699 16.32421875 23.47631836 C18.00161382 26.09314699 18.00161382 26.09314699 20.20703125 28.69750977 C22 31 22 31 22 33 C22.66 33 23.32 33 24 33 C25.77669119 35.59165851 27.43188571 38.19241116 29.0625 40.875 C32.80132548 46.9260403 36.58722872 52.9377093 40.50390625 58.875 C40.88650101 59.45557159 41.26909576 60.03614319 41.6632843 60.63430786 C43.19461787 62.9560208 44.72719828 65.27684683 46.2673645 67.5927124 C47.35136932 69.22331425 48.42968985 70.85769052 49.5078125 72.4921875 C50.13316895 73.43433105 50.75852539 74.37647461 51.40283203 75.34716797 C53 78 53 78 55 83 C19.36 83 -16.28 83 -53 83 C-53 82.67 -53 82.34 -53 82 C-30.89 82 -8.78 82 14 82 C12.1746875 71.790625 12.1746875 71.790625 10.3125 61.375 C7.82953654 47.42445944 5.3559428 33.47262806 3 19.5 C2.68929565 17.68121338 2.68929565 17.68121338 2.37231445 15.82568359 C2.18757568 14.71789551 2.00283691 13.61010742 1.8125 12.46875 C1.65394531 11.52451172 1.49539062 10.58027344 1.33203125 9.60742188 C1.00508774 7.03995369 0.93917644 4.58500135 1 2 C0.34 1.67 -0.32 1.34 -1 1 C-0.67 0.67 -0.34 0.34 0 0 Z " fill="#0199FE" transform="translate(53,37)"/>
<path d="M0 0 C10.56 0 21.12 0 32 0 C27.70416871 7.36428221 23.42910715 14.58585573 18.75 21.6875 C17.62468425 23.40474104 16.49969054 25.12219316 15.375 26.83984375 C14.81554688 27.69304199 14.25609375 28.54624023 13.6796875 29.42529297 C12.02337803 31.96416502 10.38361668 34.51288408 8.75 37.06640625 C7.99058105 38.25133667 7.99058105 38.25133667 7.21582031 39.46020508 C6.25425093 40.9622969 5.29517808 42.46599043 4.33886719 43.97143555 C3.25205971 45.66469474 2.12997036 47.3352345 1 49 C0.67 49 0.34 49 0 49 C0 32.83 0 16.66 0 0 Z " fill="#147EFE" transform="translate(0,70)"/>
<path d="M0 0 C0.66 0 1.32 0 2 0 C3.65 9.9 5.3 19.8 7 30 C-1.58 30 -10.16 30 -19 30 C-15.0966921 22.84393551 -11.2396078 16.07561198 -6.6875 9.375 C-6.15060547 8.57449219 -5.61371094 7.77398437 -5.06054688 6.94921875 C-1.17037338 1.17037338 -1.17037338 1.17037338 0 0 Z " fill="#00EDE9" transform="translate(52,39)"/>
<path d="M0 0 C2.97303248 2.79509638 5.18885676 5.60485624 7.34765625 9.0625 C7.95287109 10.02414063 8.55808594 10.98578125 9.18164062 11.9765625 C9.80232422 12.97429688 10.42300781 13.97203125 11.0625 15 C12.30195709 16.98006147 13.54279094 18.95926196 14.78515625 20.9375 C15.33051025 21.81277344 15.87586426 22.68804687 16.43774414 23.58984375 C17.95796356 26.00981382 17.95796356 26.00981382 19.70092773 28.19140625 C21 30 21 30 21 32 C16.05 32 11.1 32 6 32 C3.74607703 24.11126961 3.74607703 24.11126961 3.1484375 20.5546875 C3.01953125 19.78769531 2.890625 19.02070312 2.7578125 18.23046875 C2.63148437 17.45316406 2.50515625 16.67585938 2.375 15.875 C2.2409375 15.08996094 2.106875 14.30492187 1.96875 13.49609375 C1.32873469 9.62334803 0.82589896 5.94101435 1 2 C0.34 1.67 -0.32 1.34 -1 1 C-0.67 0.67 -0.34 0.34 0 0 Z " fill="#00B5F6" transform="translate(53,37)"/>
</svg>
